<?xml version="1.0" encoding="UTF-8" standalone="no"?>
<!-- Created with Inkscape (http://www.inkscape.org/) -->

<svg
   width="69.784378mm"
   height="111.34242mm"
   viewBox="0 0 69.784378 111.34242"
   version="1.1"
   id="svg5"
   xml:space="preserve"
   inkscape:version="1.2.2 (b0a8486541, 2022-12-01)"
   sodipodi:docname="cat.inkscape.svg"
   inkscape:export-filename="cat.svg"
   inkscape:export-xdpi="1000.13"
   inkscape:export-ydpi="1000.13"
   xmlns:inkscape="http://www.inkscape.org/namespaces/inkscape"
   xmlns:sodipodi="http://sodipodi.sourceforge.net/DTD/sodipodi-0.dtd"
   xmlns="http://www.w3.org/2000/svg"
   xmlns:svg="http://www.w3.org/2000/svg"><sodipodi:namedview
     id="namedview7"
     pagecolor="#ffffff"
     bordercolor="#666666"
     borderopacity="1.0"
     inkscape:showpageshadow="2"
     inkscape:pageopacity="0.0"
     inkscape:pagecheckerboard="0"
     inkscape:deskcolor="#d1d1d1"
     inkscape:document-units="mm"
     showgrid="false"
     inkscape:zoom="1.7781425"
     inkscape:cx="373.70457"
     inkscape:cy="585.44238"
     inkscape:window-width="1760"
     inkscape:window-height="1211"
     inkscape:window-x="1920"
     inkscape:window-y="25"
     inkscape:window-maximized="0"
     inkscape:current-layer="layer1" /><defs
     id="defs2" /><g
     inkscape:label="Layer 1"
     inkscape:groupmode="layer"
     id="layer1"
     transform="translate(-74.553819,-109.70231)"><path
       id="path1786"
       style="fill:none;stroke:#1e1e1b;stroke-width:0.264583"
       d="m 84.355469,109.84961 c -0.22595,0.0368 -0.438702,0.14833 -0.626953,0.36719 -0.701675,0.81563 -0.543975,2.35686 -0.521485,3.34375 0.04842,2.12053 0.623171,4.44273 1.003907,6.61523 0.692943,3.95313 -1.350275,7.44524 -0.927735,11.37695 0.36486,3.39672 2.996025,5.93608 3.347656,9.25977 0.438679,4.14444 -3.011342,7.71828 -3.919921,11.64258 -1.382183,5.96927 0.431064,12.31808 -0.929688,18.25586 -2.033323,8.87333 -8.276652,16.57179 -6.898438,26.19336 0.839259,5.85761 3.319458,11.40354 7.011719,15.875 1.830916,2.21747 3.918964,3.80497 6.294922,4.89453 0.921809,0.42254 1.392876,0.93225 2.457031,1.37305 1.517649,0.62838 3.333116,1.03023 5.025391,1.29296 0.814652,0.12621 1.605732,0.25794 2.382813,0.33204 l 1.070312,0.15039 c 1.16675,0.59221 8.54482,-1.96339 10.83398,-1.37696 5.51339,1.05727 12.18445,0.69097 17.4629,-1.22461 3.70521,-1.34461 7.58209,-3.58687 10.27343,-6.5039 1.22714,-1.3298 2.11516,-2.45752 2.98828,-3.96485 4.21084,-7.27049 4.63552,-16.32149 1.33008,-24.07617 -2.62202,-6.15129 -7.73789,-11.46189 -9.08594,-18.25586 -0.70036,-3.52874 0.4941,-6.74608 3.49024,-8.60742 1.45441,-0.90355 3.24112,-1.34747 4.28515,-2.78125 1.67482,-2.29975 0.0441,-5.03414 -2.69726,-5.25586 -3.0316,-0.245 -5.86349,1.60397 -7.93359,3.68359 -2.4683,2.47967 -3.88275,6.27652 -3.96875,9.78516 -0.0815,3.31523 0.77572,6.95192 2.32617,10.05469 0.38524,0.77126 0.77294,1.36842 1.16797,2.11719 0.52599,0.99695 0.94149,1.90024 1.53125,2.91015 3.54409,6.0714 6.39294,11.52367 6.07226,18.78516 -0.15319,3.46657 -1.85059,7.22472 -4.03711,9.78906 -0.57891,0.67892 -1.10907,1.21139 -1.77344,1.82813 -2.43601,2.26087 -6.5976,4.35901 -9.50696,4.4839 l -1.52624,0.1118 c 0.28534,-0.30139 0.58158,-0.58172 0.90235,-0.94336 0.84428,-0.95224 1.39388,-1.92618 1.98046,-3.09961 0.53552,-1.07077 0.97285,-2.28613 1.3086,-3.43945 0.71173,-2.44449 1.23367,-4.88673 1.58398,-7.40821 0.84719,-6.0968 -0.18211,-12.30883 -2.64062,-17.99023 -1.72958,-3.99627 -4.41814,-7.7806 -5.83789,-11.90625 -1.03265,-3.00037 -1.14174,-5.307 -1.08594,-8.20313 0.015,-0.75168 0.006,-1.14829 0.006,-1.85156 0,-0.69135 0.0198,-1.17714 -0.01,-1.85156 -0.0309,-0.69956 -0.13114,-1.21429 -0.2539,-1.85352 -0.18283,-0.9525 -0.36478,-2.19672 -0.5918,-3.17382 -0.47625,-2.04946 -1.33003,-3.76648 -2.25977,-5.55664 -0.58526,-1.12686 -1.59492,-2.81859 -1.54492,-4.23438 0.10768,-3.03133 2.69213,-5.86412 3.02735,-8.99414 0.35984,-3.35677 -1.58128,-6.46389 -0.87696,-9.79102 0.61013,-2.8829 2.93814,-8.78317 1.10352,-11.55664 -1.06151,-1.60473 -4.07076,1.24941 -4.94336,1.94336 -0.93027,0.7398 -1.32132,1.15063 -2.11719,1.94141 -0.77337,0.76825 -1.52296,1.7606 -2.64453,2.18359 -1.95818,0.73848 -4.78684,-0.66376 -6.878906,-0.56836 -1.584589,0.0722 -3.46266,1.0689 -5.023437,0.65039 -0.960967,-0.25763 -1.473548,-1.02829 -2.144531,-1.73828 -1.562629,-1.6543 -3.096525,-2.99889 -5.003907,-4.20898 -0.584795,-0.37103 -1.37879,-0.93466 -2.05664,-0.82422 z"
       sodipodi:nodetypes="ccccccccccccccccsccscsccsccsccsccccccccccssccscccsscscccscc" /></g></svg>
